<?xml version="1.0" encoding="utf-8" standalone="no"?>
<!DOCTYPE svg PUBLIC "-//W3C//DTD SVG 1.1//EN"
  "http://www.w3.org/Graphics/SVG/1.1/DTD/svg11.dtd">
<!-- Created with matplotlib (http://matplotlib.sourceforge.net/) -->
<svg height="216pt" version="1.1" viewBox="0 0 288 216" width="288pt" xmlns="http://www.w3.org/2000/svg" xmlns:xlink="http://www.w3.org/1999/xlink">
 <defs>
  <style type="text/css">
*{stroke-linecap:square;stroke-linejoin:round;}
  </style>
 </defs>
 <g id="figure_1">
  <g id="patch_1">
   <path d="
M0 216
L288 216
L288 0
L0 0
z
" style="fill:#ffffff;"/>
  </g>
  <g id="axes_1">
   <g id="patch_2">
    <path d="
M57.6 172.8
L259.2 172.8
L259.2 21.6
L57.6 21.6
z
" style="fill:#ffffff;"/>
   </g>
   <g id="line2d_1">
    <path clip-path="url(#p8107dea70d)" d="
M57.6 97.2
L59.6364 92.4052
L61.6727 87.6296
L63.7091 82.8926
L65.7455 78.2132
L67.7818 73.6103
L69.8182 69.1023
L71.8545 64.7075
L73.8909 60.4435
L75.9273 56.3276
L77.9636 52.3762
L80 48.6053
L82.0364 45.03
L84.0727 41.6649
L86.1091 38.5233
L88.1455 35.6181
L90.1818 32.9608
L92.2182 30.5621
L94.2545 28.4318
L96.2909 26.5784
L98.3273 25.0094
L100.364 23.731
L102.4 22.7485
L104.436 22.0658
L106.473 21.6856
L108.509 21.6095
L110.545 21.8378
L112.582 22.3695
L114.618 23.2025
L116.655 24.3335
L118.691 25.7579
L120.727 27.47
L122.764 29.4629
L124.8 31.7285
L126.836 34.2577
L128.873 37.0404
L130.909 40.0653
L132.945 43.3203
L134.982 46.7923
L137.018 50.4672
L139.055 54.3303
L141.091 58.366
L143.127 62.5581
L145.164 66.8897
L147.2 71.3433
L149.236 75.901
L151.273 80.5445
L153.309 85.2551
L155.345 90.0138
L157.382 94.8014
L159.418 99.5986
L161.455 104.386
L163.491 109.145
L165.527 113.855
L167.564 118.499
L169.6 123.057
L171.636 127.51
L173.673 131.842
L175.709 136.034
L177.745 140.07
L179.782 143.933
L181.818 147.608
L183.855 151.08
L185.891 154.335
L187.927 157.36
L189.964 160.142
L192 162.672
L194.036 164.937
L196.073 166.93
L198.109 168.642
L200.145 170.066
L202.182 171.197
L204.218 172.031
L206.255 172.562
L208.291 172.79
L210.327 172.714
L212.364 172.334
L214.4 171.651
L216.436 170.669
L218.473 169.391
L220.509 167.822
L222.545 165.968
L224.582 163.838
L226.618 161.439
L228.655 158.782
L230.691 155.877
L232.727 152.735
L234.764 149.37
L236.8 145.795
L238.836 142.024
L240.873 138.072
L242.909 133.956
L244.945 129.692
L246.982 125.298
L249.018 120.79
L251.055 116.187
L253.091 111.507
L255.127 106.77
L257.164 101.995
L259.2 97.2" style="fill:none;stroke:#000000;stroke-width:3;"/>
   </g>
   <g id="matplotlib.axis_1">
    <g id="xtick_1">
     <g id="line2d_2">
      <defs>
       <path d="
M0 0
L0 -4" id="m0012dd4eef" style="stroke:#000000;stroke-linecap:butt;stroke-width:0.5;"/>
      </defs>
      <g>
       <use style="stroke:#000000;stroke-linecap:butt;stroke-width:0.5;" x="57.6" xlink:href="#m0012dd4eef" y="172.8"/>
      </g>
     </g>
     <g id="line2d_3">
      <defs>
       <path d="
M0 0
L0 4" id="m476344969c" style="stroke:#000000;stroke-linecap:butt;stroke-width:0.5;"/>
      </defs>
      <g>
       <use style="stroke:#000000;stroke-linecap:butt;stroke-width:0.5;" x="57.6" xlink:href="#m476344969c" y="21.6"/>
      </g>
     </g>
     <g id="text_1">
      <!-- $0$ -->
      <defs>
       <path d="
M25 -2.20312
Q12.75 -2.20312 8.32812 7.875
Q3.90625 17.9688 3.90625 31.8906
Q3.90625 40.5781 5.48438 48.2344
Q7.07812 55.9062 11.7812 61.25
Q16.5 66.6094 25 66.6094
Q31.5938 66.6094 35.7812 63.375
Q39.9844 60.1562 42.1875 55.0469
Q44.3906 49.9531 45.1875 44.1094
Q46 38.2812 46 31.8906
Q46 23.2969 44.4062 15.7969
Q42.8281 8.29688 38.1875 3.04688
Q33.5469 -2.20312 25 -2.20312
M25 0.390625
Q30.5625 0.390625 33.2969 6.09375
Q36.0312 11.8125 36.6719 18.75
Q37.3125 25.6875 37.3125 33.5
Q37.3125 41.0156 36.6719 47.3594
Q36.0312 53.7188 33.3125 58.8594
Q30.6094 64.0156 25 64.0156
Q19.3438 64.0156 16.6094 58.8281
Q13.875 53.6562 13.2344 47.3281
Q12.5938 41.0156 12.5938 33.5
Q12.5938 27.9375 12.8594 23
Q13.1406 18.0625 14.3125 12.8125
Q15.4844 7.5625 18.0938 3.96875
Q20.7031 0.390625 25 0.390625" id="Cmr10-30"/>
      </defs>
      <g transform="translate(54.0 186.88)scale(0.144 -0.144)">
       <use transform="translate(0.0 3.390625)" xlink:href="#Cmr10-30"/>
      </g>
     </g>
    </g>
    <g id="xtick_2">
     <g id="line2d_4">
      <g>
       <use style="stroke:#000000;stroke-linecap:butt;stroke-width:0.5;" x="108.0" xlink:href="#m0012dd4eef" y="172.8"/>
      </g>
     </g>
     <g id="line2d_5">
      <g>
       <use style="stroke:#000000;stroke-linecap:butt;stroke-width:0.5;" x="108.0" xlink:href="#m476344969c" y="21.6"/>
      </g>
     </g>
     <g id="text_2">
      <!-- $\frac{\pi}{2}$ -->
      <defs>
       <path d="
M4.98438 0
L4.98438 2.6875
Q4.98438 2.9375 5.17188 3.21875
L20.7031 20.4062
Q24.2188 24.2188 26.4062 26.7969
Q28.6094 29.3906 30.75 32.7656
Q32.9062 36.1406 34.1562 39.625
Q35.4062 43.1094 35.4062 47.0156
Q35.4062 51.125 33.8906 54.8594
Q32.375 58.5938 29.375 60.8438
Q26.375 63.0938 22.125 63.0938
Q17.7812 63.0938 14.3125 60.4688
Q10.8438 57.8594 9.42188 53.7188
Q9.8125 53.8125 10.5 53.8125
Q12.75 53.8125 14.3281 52.2969
Q15.9219 50.7812 15.9219 48.3906
Q15.9219 46.0938 14.3281 44.5
Q12.75 42.9219 10.5 42.9219
Q8.15625 42.9219 6.5625 44.5469
Q4.98438 46.1875 4.98438 48.3906
Q4.98438 52.1562 6.39062 55.4375
Q7.8125 58.7344 10.4688 61.2969
Q13.1406 63.875 16.4844 65.2344
Q19.8281 66.6094 23.5781 66.6094
Q29.2969 66.6094 34.2188 64.1875
Q39.1562 61.7656 42.0312 57.3438
Q44.9219 52.9375 44.9219 47.0156
Q44.9219 42.6719 43.0156 38.7656
Q41.1094 34.8594 38.125 31.6562
Q35.1562 28.4688 30.5156 24.4062
Q25.875 20.3594 24.4219 19
L13.0938 8.10938
L22.7031 8.10938
Q29.7812 8.10938 34.5469 8.21875
Q39.3125 8.34375 39.5938 8.59375
Q40.7656 9.85938 42 17.8281
L44.9219 17.8281
L42.0938 0
z
" id="Cmr10-32"/>
       <path d="
M10.1094 1.70312
Q10.1094 2.25 10.5 3.32812
Q13.2812 9.125 15.6875 14.7188
Q18.1094 20.3125 20.0312 25.6094
Q21.9688 30.9062 23.5781 36.9219
L17.1875 36.9219
Q13.5312 36.9219 10.3438 34.625
Q7.17188 32.3281 5.07812 28.8125
Q4.89062 28.4219 4.5 28.4219
L3.32812 28.4219
Q2.39062 28.4219 2.39062 29.3906
Q2.39062 29.5938 2.59375 29.9844
Q5.85938 35.5469 9.59375 39.3281
Q13.3281 43.1094 18.0156 43.1094
L54.2969 43.1094
Q55.3281 43.1094 56.0469 42.4219
Q56.7812 41.75 56.7812 40.5781
Q56.7812 39.1094 55.7344 38.0156
Q54.6875 36.9219 53.2188 36.9219
L40.4844 36.9219
Q38.875 29.0469 38.7188 21.5781
Q38.7188 11.9688 42.0938 4.20312
Q42.3906 3.60938 42.3906 2.98438
Q42.3906 1.90625 41.75 0.96875
Q41.1094 0.046875 40.1094 -0.53125
Q39.1094 -1.125 37.9844 -1.125
Q35.3594 -1.125 34.375 3.17188
Q33.4062 7.46875 33.4062 11.5312
Q33.4062 17.2344 34.375 22.5312
Q35.3594 27.8281 37.5 36.9219
L26.6094 36.9219
Q18.7031 4.89062 17.0938 1.60938
Q15.6719 -1.125 13.1875 -1.125
Q11.9688 -1.125 11.0312 -0.3125
Q10.1094 0.484375 10.1094 1.70312" id="Cmmi10-bc"/>
      </defs>
      <g transform="translate(104.184 192.64)scale(0.144 -0.144)">
       <use transform="translate(0.0 79.8234375)scale(0.7)" xlink:href="#Cmmi10-bc"/>
       <use transform="translate(2.0 1.159375)scale(0.7)" xlink:href="#Cmr10-32"/>
       <path d="
M0 54.0359
L0 60.2859
L39.8877 60.2859
L39.8877 54.0359
L0 54.0359
z
"/>
      </g>
     </g>
    </g>
    <g id="xtick_3">
     <g id="line2d_6">
      <g>
       <use style="stroke:#000000;stroke-linecap:butt;stroke-width:0.5;" x="158.4" xlink:href="#m0012dd4eef" y="172.8"/>
      </g>
     </g>
     <g id="line2d_7">
      <g>
       <use style="stroke:#000000;stroke-linecap:butt;stroke-width:0.5;" x="158.4" xlink:href="#m476344969c" y="21.6"/>
      </g>
     </g>
     <g id="text_3">
      <!-- $\pi$ -->
      <g transform="translate(154.296 183.424)scale(0.144 -0.144)">
       <use transform="translate(0.0 2.890625)" xlink:href="#Cmmi10-bc"/>
      </g>
     </g>
    </g>
    <g id="xtick_4">
     <g id="line2d_8">
      <g>
       <use style="stroke:#000000;stroke-linecap:butt;stroke-width:0.5;" x="208.8" xlink:href="#m0012dd4eef" y="172.8"/>
      </g>
     </g>
     <g id="line2d_9">
      <g>
       <use style="stroke:#000000;stroke-linecap:butt;stroke-width:0.5;" x="208.8" xlink:href="#m476344969c" y="21.6"/>
      </g>
     </g>
     <g id="text_4">
      <!-- $\frac{3\pi}{2}$ -->
      <defs>
       <path d="
M9.51562 7.71875
Q11.8594 4.29688 15.8125 2.64062
Q19.7812 0.984375 24.3125 0.984375
Q30.125 0.984375 32.5625 5.9375
Q35.0156 10.8906 35.0156 17.1875
Q35.0156 20.0156 34.5 22.8438
Q33.9844 25.6875 32.7656 28.125
Q31.5469 30.5625 29.4219 32.0312
Q27.2969 33.5 24.2188 33.5
L17.5781 33.5
Q16.7031 33.5 16.7031 34.4219
L16.7031 35.2969
Q16.7031 36.0781 17.5781 36.0781
L23.0938 36.5312
Q26.6094 36.5312 28.9219 39.1562
Q31.25 41.7969 32.3281 45.5781
Q33.4062 49.3594 33.4062 52.7812
Q33.4062 57.5625 31.1562 60.6406
Q28.9062 63.7188 24.3125 63.7188
Q20.5156 63.7188 17.0469 62.2812
Q13.5781 60.8438 11.5312 57.9062
Q11.7188 57.9531 11.8594 57.9844
Q12.0156 58.0156 12.2031 58.0156
Q14.4531 58.0156 15.9688 56.4531
Q17.4844 54.8906 17.4844 52.6875
Q17.4844 50.5312 15.9688 48.9688
Q14.4531 47.4062 12.2031 47.4062
Q10.0156 47.4062 8.45312 48.9688
Q6.89062 50.5312 6.89062 52.6875
Q6.89062 56.9844 9.46875 60.1562
Q12.0625 63.3281 16.1406 64.9688
Q20.2188 66.6094 24.3125 66.6094
Q27.3438 66.6094 30.7031 65.7031
Q34.0781 64.7969 36.8125 63.1094
Q39.5469 61.4219 41.2812 58.7812
Q43.0156 56.1562 43.0156 52.7812
Q43.0156 48.5781 41.1406 45.0156
Q39.2656 41.4531 35.9844 38.8594
Q32.7188 36.2812 28.8125 35.0156
Q33.1562 34.1875 37.0625 31.7344
Q40.9688 29.2969 43.3281 25.4844
Q45.7031 21.6875 45.7031 17.2812
Q45.7031 11.7656 42.6719 7.29688
Q39.6562 2.82812 34.7188 0.3125
Q29.7812 -2.20312 24.3125 -2.20312
Q19.625 -2.20312 14.9062 -0.40625
Q10.2031 1.375 7.20312 4.9375
Q4.20312 8.5 4.20312 13.4844
Q4.20312 15.9688 5.85938 17.625
Q7.51562 19.2812 10.0156 19.2812
Q11.625 19.2812 12.9688 18.5312
Q14.3125 17.7812 15.0625 16.4062
Q15.8281 15.0469 15.8281 13.4844
Q15.8281 11.0312 14.1094 9.375
Q12.4062 7.71875 10.0156 7.71875
z
" id="Cmr10-33"/>
      </defs>
      <g transform="translate(202.464 195.088)scale(0.144 -0.144)">
       <use transform="translate(0.0 80.3734375)scale(0.7)" xlink:href="#Cmr10-33"/>
       <use transform="translate(35.0 80.3734375)scale(0.7)" xlink:href="#Cmmi10-bc"/>
       <use transform="translate(20.0 0.9546875)scale(0.7)" xlink:href="#Cmr10-32"/>
       <path d="
M0 53.8313
L0 60.0813
L74.8877 60.0813
L74.8877 53.8313
L0 53.8313
z
"/>
      </g>
     </g>
    </g>
    <g id="xtick_5">
     <g id="line2d_10">
      <g>
       <use style="stroke:#000000;stroke-linecap:butt;stroke-width:0.5;" x="259.2" xlink:href="#m0012dd4eef" y="172.8"/>
      </g>
     </g>
     <g id="line2d_11">
      <g>
       <use style="stroke:#000000;stroke-linecap:butt;stroke-width:0.5;" x="259.2" xlink:href="#m476344969c" y="21.6"/>
      </g>
     </g>
     <g id="text_5">
      <!-- $2\pi$ -->
      <g transform="translate(251.496 186.736)scale(0.144 -0.144)">
       <use transform="translate(0.0 2.390625)" xlink:href="#Cmr10-32"/>
       <use transform="translate(50.0 2.390625)" xlink:href="#Cmmi10-bc"/>
      </g>
     </g>
    </g>
    <g id="text_6">
     <!-- $x$ -->
     <defs>
      <path d="
M7.8125 2.875
Q9.57812 1.51562 12.7969 1.51562
Q15.9219 1.51562 18.3125 4.51562
Q20.7031 7.51562 21.5781 11.0781
L26.125 28.8125
Q27.2031 33.6406 27.2031 35.4062
Q27.2031 37.8906 25.8125 39.75
Q24.4219 41.6094 21.9219 41.6094
Q18.75 41.6094 15.9688 39.625
Q13.1875 37.6406 11.2812 34.5938
Q9.375 31.5469 8.59375 28.4219
Q8.40625 27.7812 7.8125 27.7812
L6.59375 27.7812
Q5.8125 27.7812 5.8125 28.7188
L5.8125 29
Q6.78125 32.7188 9.125 36.25
Q11.4688 39.7969 14.8594 41.9844
Q18.2656 44.1875 22.125 44.1875
Q25.7812 44.1875 28.7344 42.2344
Q31.6875 40.2812 32.9062 36.9219
Q34.625 39.9844 37.2812 42.0781
Q39.9375 44.1875 43.1094 44.1875
Q45.2656 44.1875 47.5 43.4219
Q49.75 42.6719 51.1719 41.1094
Q52.5938 39.5469 52.5938 37.2031
Q52.5938 34.6719 50.9531 32.8281
Q49.3125 31 46.7812 31
Q45.1719 31 44.0938 32.0312
Q43.0156 33.0625 43.0156 34.625
Q43.0156 36.7188 44.4531 38.2969
Q45.9062 39.8906 47.9062 40.1875
Q46.0938 41.6094 42.9219 41.6094
Q39.7031 41.6094 37.3281 38.625
Q34.9688 35.6406 33.9844 31.9844
L29.5938 14.3125
Q28.5156 10.2969 28.5156 7.71875
Q28.5156 5.17188 29.9531 3.34375
Q31.3906 1.51562 33.7969 1.51562
Q38.4844 1.51562 42.1562 5.64062
Q45.8438 9.76562 47.0156 14.7031
Q47.2188 15.2812 47.7969 15.2812
L49.0312 15.2812
Q49.4219 15.2812 49.6562 15.0156
Q49.9062 14.75 49.9062 14.4062
Q49.9062 14.3125 49.8125 14.1094
Q48.3906 8.15625 43.8438 3.51562
Q39.3125 -1.125 33.5938 -1.125
Q29.9375 -1.125 26.9844 0.84375
Q24.0312 2.82812 22.7969 6.20312
Q21.2344 3.26562 18.4688 1.0625
Q15.7188 -1.125 12.5938 -1.125
Q10.4531 -1.125 8.17188 -0.359375
Q5.90625 0.390625 4.48438 1.95312
Q3.07812 3.51562 3.07812 5.90625
Q3.07812 8.25 4.70312 10.1719
Q6.34375 12.1094 8.79688 12.1094
Q10.4531 12.1094 11.5781 11.1094
Q12.7031 10.1094 12.7031 8.5
Q12.7031 6.39062 11.2969 4.82812
Q9.90625 3.26562 7.8125 2.875" id="Cmmi10-78"/>
     </defs>
     <g transform="translate(154.92 205.728)scale(0.12 -0.12)">
      <use transform="translate(0.0 2.8125)" xlink:href="#Cmmi10-78"/>
     </g>
    </g>
   </g>
   <g id="matplotlib.axis_2">
    <g id="ytick_1">
     <g id="line2d_12">
      <defs>
       <path d="
M0 0
L4 0" id="me8a85f7bf6" style="stroke:#000000;stroke-linecap:butt;stroke-width:0.5;"/>
      </defs>
      <g>
       <use style="stroke:#000000;stroke-linecap:butt;stroke-width:0.5;" x="57.6" xlink:href="#me8a85f7bf6" y="172.8"/>
      </g>
     </g>
     <g id="line2d_13">
      <defs>
       <path d="
M0 0
L-4 0" id="m1a32005dea" style="stroke:#000000;stroke-linecap:butt;stroke-width:0.5;"/>
      </defs>
      <g>
       <use style="stroke:#000000;stroke-linecap:butt;stroke-width:0.5;" x="259.2" xlink:href="#m1a32005dea" y="172.8"/>
      </g>
     </g>
     <g id="text_7">
      <!-- −1 -->
      <defs>
       <path d="
M12.4062 8.29688
L28.5156 8.29688
L28.5156 63.9219
L10.9844 60.4062
L10.9844 69.3906
L28.4219 72.9062
L38.2812 72.9062
L38.2812 8.29688
L54.3906 8.29688
L54.3906 0
L12.4062 0
z
" id="DejaVuSans-31"/>
       <path d="
M10.5938 35.5
L73.1875 35.5
L73.1875 27.2031
L10.5938 27.2031
z
" id="DejaVuSans-2212"/>
      </defs>
      <g transform="translate(38.28875 177.174375)scale(0.12 -0.12)">
       <use xlink:href="#DejaVuSans-2212"/>
       <use x="83.7890625" xlink:href="#DejaVuSans-31"/>
      </g>
     </g>
    </g>
    <g id="ytick_2">
     <g id="line2d_14">
      <g>
       <use style="stroke:#000000;stroke-linecap:butt;stroke-width:0.5;" x="57.6" xlink:href="#me8a85f7bf6" y="97.2"/>
      </g>
     </g>
     <g id="line2d_15">
      <g>
       <use style="stroke:#000000;stroke-linecap:butt;stroke-width:0.5;" x="259.2" xlink:href="#m1a32005dea" y="97.2"/>
      </g>
     </g>
     <g id="text_8">
      <!-- 0 -->
      <defs>
       <path d="
M31.7812 66.4062
Q24.1719 66.4062 20.3281 58.9062
Q16.5 51.4219 16.5 36.375
Q16.5 21.3906 20.3281 13.8906
Q24.1719 6.39062 31.7812 6.39062
Q39.4531 6.39062 43.2812 13.8906
Q47.125 21.3906 47.125 36.375
Q47.125 51.4219 43.2812 58.9062
Q39.4531 66.4062 31.7812 66.4062
M31.7812 74.2188
Q44.0469 74.2188 50.5156 64.5156
Q56.9844 54.8281 56.9844 36.375
Q56.9844 17.9688 50.5156 8.26562
Q44.0469 -1.42188 31.7812 -1.42188
Q19.5312 -1.42188 13.0625 8.26562
Q6.59375 17.9688 6.59375 36.375
Q6.59375 54.8281 13.0625 64.5156
Q19.5312 74.2188 31.7812 74.2188" id="DejaVuSans-30"/>
      </defs>
      <g transform="translate(47.553125 101.5678125)scale(0.12 -0.12)">
       <use xlink:href="#DejaVuSans-30"/>
      </g>
     </g>
    </g>
    <g id="ytick_3">
     <g id="line2d_16">
      <g>
       <use style="stroke:#000000;stroke-linecap:butt;stroke-width:0.5;" x="57.6" xlink:href="#me8a85f7bf6" y="21.6"/>
      </g>
     </g>
     <g id="line2d_17">
      <g>
       <use style="stroke:#000000;stroke-linecap:butt;stroke-width:0.5;" x="259.2" xlink:href="#m1a32005dea" y="21.6"/>
      </g>
     </g>
     <g id="text_9">
      <!-- 1 -->
      <g transform="translate(48.39125 25.974375)scale(0.12 -0.12)">
       <use xlink:href="#DejaVuSans-31"/>
      </g>
     </g>
    </g>
    <g id="text_10">
     <!-- $\sin{x}$ -->
     <defs>
      <path d="
M2.98438 0
L2.98438 3.51562
Q6.39062 3.51562 8.59375 4.04688
Q10.7969 4.59375 10.7969 6.6875
L10.7969 33.9844
Q10.7969 36.6719 9.98438 37.8594
Q9.1875 39.0625 7.67188 39.3281
Q6.15625 39.5938 2.98438 39.5938
L2.98438 43.1094
L17.4844 44.1875
L17.4844 34.4219
Q19.4844 38.7188 23.4062 41.4531
Q27.3438 44.1875 31.9844 44.1875
Q38.9219 44.1875 42.4062 40.8594
Q45.9062 37.5469 45.9062 30.7188
L45.9062 6.6875
Q45.9062 4.59375 48.0938 4.04688
Q50.2969 3.51562 53.7188 3.51562
L53.7188 0
L30.8125 0
L30.8125 3.51562
Q34.2344 3.51562 36.4219 4.04688
Q38.625 4.59375 38.625 6.6875
L38.625 30.4219
Q38.625 35.2969 37.2031 38.4531
Q35.7969 41.6094 31.3906 41.6094
Q25.5938 41.6094 21.8438 36.9688
Q18.1094 32.3281 18.1094 26.4219
L18.1094 6.6875
Q18.1094 4.59375 20.3125 4.04688
Q22.5156 3.51562 25.875 3.51562
L25.875 0
z
" id="Cmr10-6e"/>
      <path d="
M3.32812 -0.296875
L3.32812 16.0156
Q3.32812 16.7969 4.20312 16.7969
L5.42188 16.7969
Q6 16.7969 6.20312 16.0156
Q8.98438 1.51562 19.6719 1.51562
Q24.4219 1.51562 27.6094 3.65625
Q30.8125 5.8125 30.8125 10.2969
Q30.8125 13.5312 28.3125 15.7969
Q25.8281 18.0625 22.4062 18.8906
L15.7188 20.2188
Q12.3594 20.9531 9.59375 22.4531
Q6.84375 23.9688 5.07812 26.4844
Q3.32812 29 3.32812 32.3281
Q3.32812 36.7188 5.64062 39.5156
Q7.95312 42.3281 11.6562 43.5781
Q15.375 44.8281 19.6719 44.8281
Q24.8125 44.8281 28.6094 42.0938
L31.5 44.5781
Q31.5 44.8281 31.9844 44.8281
L32.7188 44.8281
Q33.0156 44.8281 33.25 44.5469
Q33.5 44.2812 33.5 44
L33.5 30.9062
Q33.5 29.9844 32.7188 29.9844
L31.5 29.9844
Q30.6094 29.9844 30.6094 30.9062
Q30.6094 36.1406 27.7031 39.3125
Q24.8125 42.4844 19.5781 42.4844
Q15.0938 42.4844 11.7969 40.8125
Q8.5 39.1562 8.5 35.1094
Q8.5 32.3281 10.8594 30.5469
Q13.2344 28.7656 16.4062 27.9844
L23.1875 26.7031
Q26.6094 25.9219 29.5625 24.0625
Q32.5156 22.2188 34.25 19.375
Q35.9844 16.5469 35.9844 12.9844
Q35.9844 9.375 34.7344 6.70312
Q33.5 4.04688 31.2656 2.28125
Q29.0469 0.53125 26.0156 -0.296875
Q23 -1.125 19.6719 -1.125
Q13.4219 -1.125 8.98438 3.07812
L5.32812 -0.875
Q5.32812 -1.125 4.78125 -1.125
L4.20312 -1.125
Q3.32812 -1.125 3.32812 -0.296875" id="Cmr10-73"/>
      <path d="
M3.07812 0
L3.07812 3.51562
Q6.5 3.51562 8.6875 4.04688
Q10.8906 4.59375 10.8906 6.6875
L10.8906 33.9844
Q10.8906 37.8438 9.39062 38.7188
Q7.90625 39.5938 3.51562 39.5938
L3.51562 43.1094
L17.9219 44.1875
L17.9219 6.6875
Q17.9219 4.59375 19.8281 4.04688
Q21.7344 3.51562 24.9062 3.51562
L24.9062 0
z

M7.32812 61.375
Q7.32812 63.5781 8.98438 65.2344
Q10.6406 66.8906 12.7969 66.8906
Q14.2031 66.8906 15.5156 66.1562
Q16.8438 65.4375 17.5781 64.1094
Q18.3125 62.7969 18.3125 61.375
Q18.3125 59.2344 16.6406 57.5625
Q14.9844 55.9062 12.7969 55.9062
Q10.6406 55.9062 8.98438 57.5625
Q7.32812 59.2344 7.32812 61.375" id="Cmr10-69"/>
     </defs>
     <g transform="translate(11.68875 101.34)scale(0.12 -0.12)">
      <use transform="translate(0.0 2.109375)" xlink:href="#Cmr10-73"/>
      <use transform="translate(39.404296875 2.109375)" xlink:href="#Cmr10-69"/>
      <use transform="translate(67.08984375 2.109375)" xlink:href="#Cmr10-6e"/>
      <use transform="translate(122.607421875 2.109375)" xlink:href="#Cmmi10-78"/>
     </g>
    </g>
   </g>
   <g id="patch_3">
    <path d="
M57.6 21.6
L259.2 21.6" style="fill:none;stroke:#000000;"/>
   </g>
   <g id="patch_4">
    <path d="
M259.2 172.8
L259.2 21.6" style="fill:none;stroke:#000000;"/>
   </g>
   <g id="patch_5">
    <path d="
M57.6 172.8
L259.2 172.8" style="fill:none;stroke:#000000;"/>
   </g>
   <g id="patch_6">
    <path d="
M57.6 172.8
L57.6 21.6" style="fill:none;stroke:#000000;"/>
   </g>
  </g>
 </g>
 <defs>
  <clipPath id="p8107dea70d">
   <rect height="151.2" width="201.6" x="57.6" y="21.6"/>
  </clipPath>
 </defs>
</svg>
